# xmcd CD database file
#
# Track frame offsets:
#	150
#	25122
#	48860
#	69948
#	88085
#	113342
#	136780
#	159473
#	176375
#	197928
#	224289
#	248168
#	273645
#	298775
#	318485
#
# Disc length: 4580 seconds
#
# Revision: 5
# Processed by: cddbd v1.5.2PL0 Copyright (c) Steve Scherf et al.
# Submitted via: CDex 1.70beta3
#
DISCID=d111e20f
DTITLE=GLAY - The Great Vacation Vol.1 Disc 2
DYEAR=2009
DGENRE=Rock
TTITLE0=Blue Jean (Jet the Phantom Mix)
TTITLE1=ホワイトロード
TTITLE2=SCREAM／GLAY × EXILE
TTITLE3=ROCK'N'ROLL SWINDLE
TTITLE4=LAYLA
TTITLE5=ANSWER／GLAY Feat. KYOSUKE HIMURO
TTITLE6=夏音
TTITLE7=変な夢 ～THOUSAND DREAMS～
TTITLE8=100万回のKISS
TTITLE9=MIRROR
TTITLE10=鼓動
TTITLE11=僕達の勝敗
TTITLE12=SORRY LOVE
TTITLE13=紅と黒のMATADORA
TTITLE14=春までは
EXTD=YEAR: 2009
EXTT0=
EXTT1=
EXTT2=
EXTT3=
EXTT4=
EXTT5=
EXTT6=
EXTT7=
EXTT8=
EXTT9=
EXTT10=
EXTT11=
EXTT12=
EXTT13=
EXTT14=
PLAYORDER=
